<svg xmlns="http://www.w3.org/2000/svg" xmlns:xlink="http://www.w3.org/1999/xlink" width="84" height="228" viewBox="0 0 84 228"><defs><style>.a{fill:#fff;stroke:#707070;}.b{clip-path:url(#a);}</style><clipPath id="a"><rect class="a" width="84" height="228" transform="translate(1836 2164)"/></clipPath></defs><g class="b" transform="translate(-1836 -2164)"><g transform="translate(1850 2193)"><circle cx="10" cy="10" r="10"/><circle cx="10" cy="10" r="10" transform="translate(40)"/><circle cx="10" cy="10" r="10" transform="translate(80)"/><circle cx="10" cy="10" r="10" transform="translate(120)"/><circle cx="10" cy="10" r="10" transform="translate(0 40)"/><circle cx="10" cy="10" r="10" transform="translate(40 40)"/><circle cx="10" cy="10" r="10" transform="translate(80 40)"/><circle cx="10" cy="10" r="10" transform="translate(120 40)"/><circle cx="10" cy="10" r="10" transform="translate(0 80)"/><circle cx="10" cy="10" r="10" transform="translate(40 80)"/><circle cx="10" cy="10" r="10" transform="translate(80 80)"/><circle cx="10" cy="10" r="10" transform="translate(120 80)"/><circle cx="10" cy="10" r="10" transform="translate(0 120)"/><circle cx="10" cy="10" r="10" transform="translate(40 120)"/><circle cx="10" cy="10" r="10" transform="translate(80 120)"/><circle cx="10" cy="10" r="10" transform="translate(120 120)"/><circle cx="10" cy="10" r="10" transform="translate(0 160)"/><circle cx="10" cy="10" r="10" transform="translate(40 160)"/><circle cx="10" cy="10" r="10" transform="translate(80 160)"/><circle cx="10" cy="10" r="10" transform="translate(120 160)"/></g></g></svg>