<svg xmlns="http://www.w3.org/2000/svg" xmlns:xlink="http://www.w3.org/1999/xlink" width="90" height="283" viewBox="0 0 90 283"><defs><style>.a{fill:#fff;stroke:#707070;}.b{fill:none;}.c{clip-path:url(#a);}.d{clip-path:url(#b);}.e{fill:#c2341c;}</style><clipPath id="a"><rect class="a" width="90" height="283" transform="translate(0 1819)"/></clipPath><clipPath id="b"><rect class="b" width="140" height="229"/></clipPath></defs><g class="c" transform="translate(0 -1819)"><g class="d" transform="translate(-70 1844)"><g transform="translate(24317 -14500)"><circle class="e" cx="10" cy="10" r="10" transform="translate(-24317 14500)"/><circle class="e" cx="10" cy="10" r="10" transform="translate(-24277 14500)"/><circle class="e" cx="10" cy="10" r="10" transform="translate(-24237 14500)"/><circle class="e" cx="10" cy="10" r="10" transform="translate(-24197 14500)"/><circle class="e" cx="10" cy="10" r="10" transform="translate(-24317 14540)"/><circle class="e" cx="10" cy="10" r="10" transform="translate(-24277 14540)"/><circle class="e" cx="10" cy="10" r="10" transform="translate(-24237 14540)"/><circle class="e" cx="10" cy="10" r="10" transform="translate(-24197 14540)"/><circle class="e" cx="10" cy="10" r="10" transform="translate(-24317 14580)"/><circle class="e" cx="10" cy="10" r="10" transform="translate(-24277 14580)"/><circle class="e" cx="10" cy="10" r="10" transform="translate(-24237 14580)"/><circle class="e" cx="10" cy="10" r="10" transform="translate(-24197 14580)"/><circle class="e" cx="10" cy="10" r="10" transform="translate(-24317 14620)"/><circle class="e" cx="10" cy="10" r="10" transform="translate(-24277 14620)"/><circle class="e" cx="10" cy="10" r="10" transform="translate(-24237 14620)"/><circle class="e" cx="10" cy="10" r="10" transform="translate(-24197 14620)"/><circle class="e" cx="10" cy="10" r="10" transform="translate(-24317 14660)"/><circle class="e" cx="10" cy="10" r="10" transform="translate(-24277 14660)"/><circle class="e" cx="10" cy="10" r="10" transform="translate(-24237 14660)"/><circle class="e" cx="10" cy="10" r="10" transform="translate(-24197 14660)"/></g><g transform="translate(24317 -14300)"><circle class="e" cx="10" cy="10" r="10" transform="translate(-24317 14500)"/><circle class="e" cx="10" cy="10" r="10" transform="translate(-24277 14500)"/><circle class="e" cx="10" cy="10" r="10" transform="translate(-24237 14500)"/><circle class="e" cx="10" cy="10" r="10" transform="translate(-24197 14500)"/><circle class="e" cx="10" cy="10" r="10" transform="translate(-24317 14540)"/><circle class="e" cx="10" cy="10" r="10" transform="translate(-24277 14540)"/><circle class="e" cx="10" cy="10" r="10" transform="translate(-24237 14540)"/><circle class="e" cx="10" cy="10" r="10" transform="translate(-24197 14540)"/><circle class="e" cx="10" cy="10" r="10" transform="translate(-24317 14580)"/><circle class="e" cx="10" cy="10" r="10" transform="translate(-24277 14580)"/><circle class="e" cx="10" cy="10" r="10" transform="translate(-24237 14580)"/><circle class="e" cx="10" cy="10" r="10" transform="translate(-24197 14580)"/><circle class="e" cx="10" cy="10" r="10" transform="translate(-24317 14620)"/><circle class="e" cx="10" cy="10" r="10" transform="translate(-24277 14620)"/><circle class="e" cx="10" cy="10" r="10" transform="translate(-24237 14620)"/><circle class="e" cx="10" cy="10" r="10" transform="translate(-24197 14620)"/><circle class="e" cx="10" cy="10" r="10" transform="translate(-24317 14660)"/><circle class="e" cx="10" cy="10" r="10" transform="translate(-24277 14660)"/><circle class="e" cx="10" cy="10" r="10" transform="translate(-24237 14660)"/><circle class="e" cx="10" cy="10" r="10" transform="translate(-24197 14660)"/></g></g></g></svg>